<?xml version="1.0"?>
<svg xmlns="http://www.w3.org/2000/svg" width="1920.35" height="792.345">
  <defs>
    <clipPath id="b">
      <path d="M151.723-474.7c20.535-19.324 53.559-6.73 53.559-6.73L549.8-309.719a108.105 108.105 0 0092.657 3.228s724.363-204.173 772.57-218.954 72.65-1.672 98.449 7.637c257.314 104.867 405.4 160.668 405.4 160.668v143.6h-144.444c-16.819-4.952-48.411-3.463-65.65 0h-558.549c-7.027 1.411-56.73 0-63.917 0l-344.916-.973c-16.336 0-422.474 7.042-436.974 0H2v-142.894S131.188-455.376 151.723-474.7z" transform="translate(8298 748.161)" clip-rule="evenodd" fill="#fff" />
    </clipPath>
    <clipPath id="c">
      <path fill="none" d="M0 0h1922v748.001H0z" />
    </clipPath>
    <linearGradient id="a" x1=".5" x2=".5" y2="1" gradientUnits="objectBoundingBox">
      <stop offset="0" stop-color="#282f89" stop-opacity=".706" />
      <stop offset="1" stop-color="#272e88" />
    </linearGradient>
    <style>.g{fill:#fff}</style>
  </defs>
  <path fill="#272e88" d="M.322 543.345h1920v249H.322z" />
  <path d="M2 201.987l117.171 55.219a148.488 148.488 0 0062.429 13.761h520.8a90.124 90.124 0 0030.967-5.487l184.159-66.568c20.606-7.9 38.859-3.984 47.1-1.574l472.564 143.5c21.838 6.08 45.812 10.041 66.868-.336l417.047-181.8.925 545.788-1920.352-1z" transform="translate(-1.678 -158.708)" fill="url(#a)" />
  <g transform="translate(-8298.043 251.792)" opacity=".15" clip-path="url(#b)">
    <g transform="translate(8315.499 136)" opacity=".668" clip-path="url(#c)">
      <path class="g" d="M3 8V5H0V3h3V0h2v3h3v2H5v3zM53 8V5h-3V3h3V0h2v3h3v2h-3v3zM103 8V5h-3V3h3V0h2v3h3v2h-3v3zM153 8V5h-3V3h3V0h2v3h3v2h-3v3zM203 8V5h-3V3h3V0h2v3h3v2h-3v3zM253 8V5h-3V3h3V0h2v3h3v2h-3v3zM303 8V5h-3V3h3V0h2v3h3v2h-3v3zM353 8V5h-3V3h3V0h2v3h3v2h-3v3zM403 8V5h-3V3h3V0h2v3h3v2h-3v3zM453 8V5h-3V3h3V0h2v3h3v2h-3v3zM503 8V5h-3V3h3V0h2v3h3v2h-3v3zM553 8V5h-3V3h3V0h2v3h3v2h-3v3zM603 8V5h-3V3h3V0h2v3h3v2h-3v3zM653 8V5h-3V3h3V0h2v3h3v2h-3v3zM703 8V5h-3V3h3V0h2v3h3v2h-3v3zM753 8V5h-3V3h3V0h2v3h3v2h-3v3zM803 8V5h-3V3h3V0h2v3h3v2h-3v3zM853 8V5h-3V3h3V0h2v3h3v2h-3v3zM903 8V5h-3V3h3V0h2v3h3v2h-3v3zM953 8V5h-3V3h3V0h2v3h3v2h-3v3zM1003 8V5h-3V3h3V0h2v3h3v2h-3v3zM1053 8V5h-3V3h3V0h2v3h3v2h-3v3zM1103 8V5h-3V3h3V0h2v3h3v2h-3v3zM1153 8V5h-3V3h3V0h2v3h3v2h-3v3zM1203 8V5h-3V3h3V0h2v3h3v2h-3v3zM1253 8V5h-3V3h3V0h2v3h3v2h-3v3zM1303 8V5h-3V3h3V0h2v3h3v2h-3v3zM1353 8V5h-3V3h3V0h2v3h3v2h-3v3zM1403 8V5h-3V3h3V0h2v3h3v2h-3v3zM1453 8V5h-3V3h3V0h2v3h3v2h-3v3zM1503 8V5h-3V3h3V0h2v3h3v2h-3v3zM1553 8V5h-3V3h3V0h2v3h3v2h-3v3zM1603 8V5h-3V3h3V0h2v3h3v2h-3v3zM1653 8V5h-3V3h3V0h2v3h3v2h-3v3zM1703 8V5h-3V3h3V0h2v3h3v2h-3v3zM1753 8V5h-3V3h3V0h2v3h3v2h-3v3zM1803 8V5h-3V3h3V0h2v3h3v2h-3v3zM1853 8V5h-3V3h3V0h2v3h3v2h-3v3zM1903 8V5h-3V3h3V0h2v3h3v2h-3v3zM3 60v-3H0v-2h3v-3h2v3h3v2H5v3zM53 60v-3h-3v-2h3v-3h2v3h3v2h-3v3zM103 60v-3h-3v-2h3v-3h2v3h3v2h-3v3zM153 60v-3h-3v-2h3v-3h2v3h3v2h-3v3zM203 60v-3h-3v-2h3v-3h2v3h3v2h-3v3zM253 60v-3h-3v-2h3v-3h2v3h3v2h-3v3zM303 60v-3h-3v-2h3v-3h2v3h3v2h-3v3zM353 60v-3h-3v-2h3v-3h2v3h3v2h-3v3zM403 60v-3h-3v-2h3v-3h2v3h3v2h-3v3zM453 60v-3h-3v-2h3v-3h2v3h3v2h-3v3zM503 60v-3h-3v-2h3v-3h2v3h3v2h-3v3zM553 60v-3h-3v-2h3v-3h2v3h3v2h-3v3zM603 60v-3h-3v-2h3v-3h2v3h3v2h-3v3zM653 60v-3h-3v-2h3v-3h2v3h3v2h-3v3zM703 60v-3h-3v-2h3v-3h2v3h3v2h-3v3zM753 60v-3h-3v-2h3v-3h2v3h3v2h-3v3zM803 60v-3h-3v-2h3v-3h2v3h3v2h-3v3zM853 60v-3h-3v-2h3v-3h2v3h3v2h-3v3zM903 60v-3h-3v-2h3v-3h2v3h3v2h-3v3zM953 60v-3h-3v-2h3v-3h2v3h3v2h-3v3zM1003 60v-3h-3v-2h3v-3h2v3h3v2h-3v3zM1053 60v-3h-3v-2h3v-3h2v3h3v2h-3v3zM1103 60v-3h-3v-2h3v-3h2v3h3v2h-3v3zM1153 60v-3h-3v-2h3v-3h2v3h3v2h-3v3zM1203 60v-3h-3v-2h3v-3h2v3h3v2h-3v3zM1253 60v-3h-3v-2h3v-3h2v3h3v2h-3v3zM1303 60v-3h-3v-2h3v-3h2v3h3v2h-3v3zM1353 60v-3h-3v-2h3v-3h2v3h3v2h-3v3zM1403 60v-3h-3v-2h3v-3h2v3h3v2h-3v3zM1453 60v-3h-3v-2h3v-3h2v3h3v2h-3v3zM1503 60v-3h-3v-2h3v-3h2v3h3v2h-3v3zM1553 60v-3h-3v-2h3v-3h2v3h3v2h-3v3zM1603 60v-3h-3v-2h3v-3h2v3h3v2h-3v3zM1653 60v-3h-3v-2h3v-3h2v3h3v2h-3v3zM1703 60v-3h-3v-2h3v-3h2v3h3v2h-3v3zM1753 60v-3h-3v-2h3v-3h2v3h3v2h-3v3zM1803 60v-3h-3v-2h3v-3h2v3h3v2h-3v3zM1853 60v-3h-3v-2h3v-3h2v3h3v2h-3v3zM1903 60v-3h-3v-2h3v-3h2v3h3v2h-3v3zM3 112v-3H0v-2h3v-3h2v3h3v2H5v3zM53 112v-3h-3v-2h3v-3h2v3h3v2h-3v3zM103 112v-3h-3v-2h3v-3h2v3h3v2h-3v3zM153 112v-3h-3v-2h3v-3h2v3h3v2h-3v3zM203 112v-3h-3v-2h3v-3h2v3h3v2h-3v3zM253 112v-3h-3v-2h3v-3h2v3h3v2h-3v3zM303 112v-3h-3v-2h3v-3h2v3h3v2h-3v3zM353 112v-3h-3v-2h3v-3h2v3h3v2h-3v3zM403 112v-3h-3v-2h3v-3h2v3h3v2h-3v3zM453 112v-3h-3v-2h3v-3h2v3h3v2h-3v3zM503 112v-3h-3v-2h3v-3h2v3h3v2h-3v3zM553 112v-3h-3v-2h3v-3h2v3h3v2h-3v3zM603 112v-3h-3v-2h3v-3h2v3h3v2h-3v3zM653 112v-3h-3v-2h3v-3h2v3h3v2h-3v3zM703 112v-3h-3v-2h3v-3h2v3h3v2h-3v3zM753 112v-3h-3v-2h3v-3h2v3h3v2h-3v3zM803 112v-3h-3v-2h3v-3h2v3h3v2h-3v3zM853 112v-3h-3v-2h3v-3h2v3h3v2h-3v3zM903 112v-3h-3v-2h3v-3h2v3h3v2h-3v3zM953 112v-3h-3v-2h3v-3h2v3h3v2h-3v3zM1003 112v-3h-3v-2h3v-3h2v3h3v2h-3v3zM1053 112v-3h-3v-2h3v-3h2v3h3v2h-3v3zM1103 112v-3h-3v-2h3v-3h2v3h3v2h-3v3zM1153 112v-3h-3v-2h3v-3h2v3h3v2h-3v3zM1203 112v-3h-3v-2h3v-3h2v3h3v2h-3v3zM1253 112v-3h-3v-2h3v-3h2v3h3v2h-3v3zM1303 112v-3h-3v-2h3v-3h2v3h3v2h-3v3zM1353 112v-3h-3v-2h3v-3h2v3h3v2h-3v3zM1403 112v-3h-3v-2h3v-3h2v3h3v2h-3v3zM1453 112v-3h-3v-2h3v-3h2v3h3v2h-3v3zM1503 112v-3h-3v-2h3v-3h2v3h3v2h-3v3zM1553 112v-3h-3v-2h3v-3h2v3h3v2h-3v3zM1603 112v-3h-3v-2h3v-3h2v3h3v2h-3v3zM1653 112v-3h-3v-2h3v-3h2v3h3v2h-3v3zM1703 112v-3h-3v-2h3v-3h2v3h3v2h-3v3zM1753 112v-3h-3v-2h3v-3h2v3h3v2h-3v3zM1803 112v-3h-3v-2h3v-3h2v3h3v2h-3v3zM1853 112v-3h-3v-2h3v-3h2v3h3v2h-3v3zM1903 112v-3h-3v-2h3v-3h2v3h3v2h-3v3zM3 164v-3H0v-2h3v-3h2v3h3v2H5v3zM53 164v-3h-3v-2h3v-3h2v3h3v2h-3v3zM103 164v-3h-3v-2h3v-3h2v3h3v2h-3v3zM153 164v-3h-3v-2h3v-3h2v3h3v2h-3v3zM203 164v-3h-3v-2h3v-3h2v3h3v2h-3v3zM253 164v-3h-3v-2h3v-3h2v3h3v2h-3v3zM303 164v-3h-3v-2h3v-3h2v3h3v2h-3v3zM353 164v-3h-3v-2h3v-3h2v3h3v2h-3v3zM403 164v-3h-3v-2h3v-3h2v3h3v2h-3v3zM453 164v-3h-3v-2h3v-3h2v3h3v2h-3v3zM503 164v-3h-3v-2h3v-3h2v3h3v2h-3v3zM553 164v-3h-3v-2h3v-3h2v3h3v2h-3v3zM603 164v-3h-3v-2h3v-3h2v3h3v2h-3v3zM653 164v-3h-3v-2h3v-3h2v3h3v2h-3v3zM703 164v-3h-3v-2h3v-3h2v3h3v2h-3v3zM753 164v-3h-3v-2h3v-3h2v3h3v2h-3v3zM803 164v-3h-3v-2h3v-3h2v3h3v2h-3v3zM853 164v-3h-3v-2h3v-3h2v3h3v2h-3v3zM903 164v-3h-3v-2h3v-3h2v3h3v2h-3v3zM953 164v-3h-3v-2h3v-3h2v3h3v2h-3v3zM1003 164v-3h-3v-2h3v-3h2v3h3v2h-3v3zM1053 164v-3h-3v-2h3v-3h2v3h3v2h-3v3zM1103 164v-3h-3v-2h3v-3h2v3h3v2h-3v3zM1153 164v-3h-3v-2h3v-3h2v3h3v2h-3v3zM1203 164v-3h-3v-2h3v-3h2v3h3v2h-3v3zM1253 164v-3h-3v-2h3v-3h2v3h3v2h-3v3zM1303 164v-3h-3v-2h3v-3h2v3h3v2h-3v3zM1353 164v-3h-3v-2h3v-3h2v3h3v2h-3v3zM1403 164v-3h-3v-2h3v-3h2v3h3v2h-3v3zM1453 164v-3h-3v-2h3v-3h2v3h3v2h-3v3zM1503 164v-3h-3v-2h3v-3h2v3h3v2h-3v3zM1553 164v-3h-3v-2h3v-3h2v3h3v2h-3v3zM1603 164v-3h-3v-2h3v-3h2v3h3v2h-3v3zM1653 164v-3h-3v-2h3v-3h2v3h3v2h-3v3zM1703 164v-3h-3v-2h3v-3h2v3h3v2h-3v3zM1753 164v-3h-3v-2h3v-3h2v3h3v2h-3v3zM1803 164v-3h-3v-2h3v-3h2v3h3v2h-3v3zM1853 164v-3h-3v-2h3v-3h2v3h3v2h-3v3zM1903 164v-3h-3v-2h3v-3h2v3h3v2h-3v3zM3 216v-3H0v-2h3v-3h2v3h3v2H5v3zM53 216v-3h-3v-2h3v-3h2v3h3v2h-3v3zM103 216v-3h-3v-2h3v-3h2v3h3v2h-3v3zM153 216v-3h-3v-2h3v-3h2v3h3v2h-3v3zM203 216v-3h-3v-2h3v-3h2v3h3v2h-3v3zM253 216v-3h-3v-2h3v-3h2v3h3v2h-3v3zM303 216v-3h-3v-2h3v-3h2v3h3v2h-3v3zM353 216v-3h-3v-2h3v-3h2v3h3v2h-3v3zM403 216v-3h-3v-2h3v-3h2v3h3v2h-3v3zM453 216v-3h-3v-2h3v-3h2v3h3v2h-3v3zM503 216v-3h-3v-2h3v-3h2v3h3v2h-3v3zM553 216v-3h-3v-2h3v-3h2v3h3v2h-3v3zM603 216v-3h-3v-2h3v-3h2v3h3v2h-3v3zM653 216v-3h-3v-2h3v-3h2v3h3v2h-3v3zM703 216v-3h-3v-2h3v-3h2v3h3v2h-3v3zM753 216v-3h-3v-2h3v-3h2v3h3v2h-3v3zM803 216v-3h-3v-2h3v-3h2v3h3v2h-3v3zM853 216v-3h-3v-2h3v-3h2v3h3v2h-3v3zM903 216v-3h-3v-2h3v-3h2v3h3v2h-3v3zM953 216v-3h-3v-2h3v-3h2v3h3v2h-3v3zM1003 216v-3h-3v-2h3v-3h2v3h3v2h-3v3zM1053 216v-3h-3v-2h3v-3h2v3h3v2h-3v3zM1103 216v-3h-3v-2h3v-3h2v3h3v2h-3v3zM1153 216v-3h-3v-2h3v-3h2v3h3v2h-3v3zM1203 216v-3h-3v-2h3v-3h2v3h3v2h-3v3zM1253 216v-3h-3v-2h3v-3h2v3h3v2h-3v3zM1303 216v-3h-3v-2h3v-3h2v3h3v2h-3v3zM1353 216v-3h-3v-2h3v-3h2v3h3v2h-3v3zM1403 216v-3h-3v-2h3v-3h2v3h3v2h-3v3zM1453 216v-3h-3v-2h3v-3h2v3h3v2h-3v3zM1503 216v-3h-3v-2h3v-3h2v3h3v2h-3v3zM1553 216v-3h-3v-2h3v-3h2v3h3v2h-3v3zM1603 216v-3h-3v-2h3v-3h2v3h3v2h-3v3zM1653 216v-3h-3v-2h3v-3h2v3h3v2h-3v3zM1703 216v-3h-3v-2h3v-3h2v3h3v2h-3v3zM1753 216v-3h-3v-2h3v-3h2v3h3v2h-3v3zM1803 216v-3h-3v-2h3v-3h2v3h3v2h-3v3zM1853 216v-3h-3v-2h3v-3h2v3h3v2h-3v3zM1903 216v-3h-3v-2h3v-3h2v3h3v2h-3v3zM3 268v-3H0v-2h3v-3h2v3h3v2H5v3zM53 268v-3h-3v-2h3v-3h2v3h3v2h-3v3zM103 268v-3h-3v-2h3v-3h2v3h3v2h-3v3zM153 268v-3h-3v-2h3v-3h2v3h3v2h-3v3zM203 268v-3h-3v-2h3v-3h2v3h3v2h-3v3zM253 268v-3h-3v-2h3v-3h2v3h3v2h-3v3zM303 268v-3h-3v-2h3v-3h2v3h3v2h-3v3zM353 268v-3h-3v-2h3v-3h2v3h3v2h-3v3zM403 268v-3h-3v-2h3v-3h2v3h3v2h-3v3zM453 268v-3h-3v-2h3v-3h2v3h3v2h-3v3zM503 268v-3h-3v-2h3v-3h2v3h3v2h-3v3zM553 268v-3h-3v-2h3v-3h2v3h3v2h-3v3zM603 268v-3h-3v-2h3v-3h2v3h3v2h-3v3zM653 268v-3h-3v-2h3v-3h2v3h3v2h-3v3zM703 268v-3h-3v-2h3v-3h2v3h3v2h-3v3zM753 268v-3h-3v-2h3v-3h2v3h3v2h-3v3zM803 268v-3h-3v-2h3v-3h2v3h3v2h-3v3zM853 268v-3h-3v-2h3v-3h2v3h3v2h-3v3zM903 268v-3h-3v-2h3v-3h2v3h3v2h-3v3zM953 268v-3h-3v-2h3v-3h2v3h3v2h-3v3zM1003 268v-3h-3v-2h3v-3h2v3h3v2h-3v3zM1053 268v-3h-3v-2h3v-3h2v3h3v2h-3v3zM1103 268v-3h-3v-2h3v-3h2v3h3v2h-3v3zM1153 268v-3h-3v-2h3v-3h2v3h3v2h-3v3zM1203 268v-3h-3v-2h3v-3h2v3h3v2h-3v3zM1253 268v-3h-3v-2h3v-3h2v3h3v2h-3v3zM1303 268v-3h-3v-2h3v-3h2v3h3v2h-3v3zM1353 268v-3h-3v-2h3v-3h2v3h3v2h-3v3zM1403 268v-3h-3v-2h3v-3h2v3h3v2h-3v3zM1453 268v-3h-3v-2h3v-3h2v3h3v2h-3v3zM1503 268v-3h-3v-2h3v-3h2v3h3v2h-3v3zM1553 268v-3h-3v-2h3v-3h2v3h3v2h-3v3zM1603 268v-3h-3v-2h3v-3h2v3h3v2h-3v3zM1653 268v-3h-3v-2h3v-3h2v3h3v2h-3v3zM1703 268v-3h-3v-2h3v-3h2v3h3v2h-3v3zM1753 268v-3h-3v-2h3v-3h2v3h3v2h-3v3zM1803 268v-3h-3v-2h3v-3h2v3h3v2h-3v3zM1853 268v-3h-3v-2h3v-3h2v3h3v2h-3v3zM1903 268v-3h-3v-2h3v-3h2v3h3v2h-3v3zM3 320v-3H0v-2h3v-3h2v3h3v2H5v3zM53 320v-3h-3v-2h3v-3h2v3h3v2h-3v3zM103 320v-3h-3v-2h3v-3h2v3h3v2h-3v3zM153 320v-3h-3v-2h3v-3h2v3h3v2h-3v3zM203 320v-3h-3v-2h3v-3h2v3h3v2h-3v3zM253 320v-3h-3v-2h3v-3h2v3h3v2h-3v3zM303 320v-3h-3v-2h3v-3h2v3h3v2h-3v3zM353 320v-3h-3v-2h3v-3h2v3h3v2h-3v3zM403 320v-3h-3v-2h3v-3h2v3h3v2h-3v3zM453 320v-3h-3v-2h3v-3h2v3h3v2h-3v3zM503 320v-3h-3v-2h3v-3h2v3h3v2h-3v3zM553 320v-3h-3v-2h3v-3h2v3h3v2h-3v3zM603 320v-3h-3v-2h3v-3h2v3h3v2h-3v3zM653 320v-3h-3v-2h3v-3h2v3h3v2h-3v3zM703 320v-3h-3v-2h3v-3h2v3h3v2h-3v3zM753 320v-3h-3v-2h3v-3h2v3h3v2h-3v3zM803 320v-3h-3v-2h3v-3h2v3h3v2h-3v3zM853 320v-3h-3v-2h3v-3h2v3h3v2h-3v3zM903 320v-3h-3v-2h3v-3h2v3h3v2h-3v3zM953 320v-3h-3v-2h3v-3h2v3h3v2h-3v3zM1003 320v-3h-3v-2h3v-3h2v3h3v2h-3v3zM1053 320v-3h-3v-2h3v-3h2v3h3v2h-3v3zM1103 320v-3h-3v-2h3v-3h2v3h3v2h-3v3zM1153 320v-3h-3v-2h3v-3h2v3h3v2h-3v3zM1203 320v-3h-3v-2h3v-3h2v3h3v2h-3v3zM1253 320v-3h-3v-2h3v-3h2v3h3v2h-3v3zM1303 320v-3h-3v-2h3v-3h2v3h3v2h-3v3zM1353 320v-3h-3v-2h3v-3h2v3h3v2h-3v3zM1403 320v-3h-3v-2h3v-3h2v3h3v2h-3v3zM1453 320v-3h-3v-2h3v-3h2v3h3v2h-3v3zM1503 320v-3h-3v-2h3v-3h2v3h3v2h-3v3zM1553 320v-3h-3v-2h3v-3h2v3h3v2h-3v3zM1603 320v-3h-3v-2h3v-3h2v3h3v2h-3v3zM1653 320v-3h-3v-2h3v-3h2v3h3v2h-3v3zM1703 320v-3h-3v-2h3v-3h2v3h3v2h-3v3zM1753 320v-3h-3v-2h3v-3h2v3h3v2h-3v3zM1803 320v-3h-3v-2h3v-3h2v3h3v2h-3v3zM1853 320v-3h-3v-2h3v-3h2v3h3v2h-3v3zM1903 320v-3h-3v-2h3v-3h2v3h3v2h-3v3zM3 372v-3H0v-2h3v-3h2v3h3v2H5v3zM53 372v-3h-3v-2h3v-3h2v3h3v2h-3v3zM103 372v-3h-3v-2h3v-3h2v3h3v2h-3v3zM153 372v-3h-3v-2h3v-3h2v3h3v2h-3v3zM203 372v-3h-3v-2h3v-3h2v3h3v2h-3v3zM253 372v-3h-3v-2h3v-3h2v3h3v2h-3v3zM303 372v-3h-3v-2h3v-3h2v3h3v2h-3v3zM353 372v-3h-3v-2h3v-3h2v3h3v2h-3v3zM403 372v-3h-3v-2h3v-3h2v3h3v2h-3v3zM453 372v-3h-3v-2h3v-3h2v3h3v2h-3v3zM503 372v-3h-3v-2h3v-3h2v3h3v2h-3v3zM553 372v-3h-3v-2h3v-3h2v3h3v2h-3v3zM603 372v-3h-3v-2h3v-3h2v3h3v2h-3v3zM653 372v-3h-3v-2h3v-3h2v3h3v2h-3v3zM703 372v-3h-3v-2h3v-3h2v3h3v2h-3v3zM753 372v-3h-3v-2h3v-3h2v3h3v2h-3v3zM803 372v-3h-3v-2h3v-3h2v3h3v2h-3v3zM853 372v-3h-3v-2h3v-3h2v3h3v2h-3v3zM903 372v-3h-3v-2h3v-3h2v3h3v2h-3v3zM953 372v-3h-3v-2h3v-3h2v3h3v2h-3v3zM1003 372v-3h-3v-2h3v-3h2v3h3v2h-3v3zM1053 372v-3h-3v-2h3v-3h2v3h3v2h-3v3zM1103 372v-3h-3v-2h3v-3h2v3h3v2h-3v3zM1153 372v-3h-3v-2h3v-3h2v3h3v2h-3v3zM1203 372v-3h-3v-2h3v-3h2v3h3v2h-3v3zM1253 372v-3h-3v-2h3v-3h2v3h3v2h-3v3zM1303 372v-3h-3v-2h3v-3h2v3h3v2h-3v3zM1353 372v-3h-3v-2h3v-3h2v3h3v2h-3v3zM1403 372v-3h-3v-2h3v-3h2v3h3v2h-3v3zM1453 372v-3h-3v-2h3v-3h2v3h3v2h-3v3zM1503 372v-3h-3v-2h3v-3h2v3h3v2h-3v3zM1553 372v-3h-3v-2h3v-3h2v3h3v2h-3v3zM1603 372v-3h-3v-2h3v-3h2v3h3v2h-3v3zM1653 372v-3h-3v-2h3v-3h2v3h3v2h-3v3zM1703 372v-3h-3v-2h3v-3h2v3h3v2h-3v3zM1753 372v-3h-3v-2h3v-3h2v3h3v2h-3v3zM1803 372v-3h-3v-2h3v-3h2v3h3v2h-3v3zM1853 372v-3h-3v-2h3v-3h2v3h3v2h-3v3zM1903 372v-3h-3v-2h3v-3h2v3h3v2h-3v3zM3 424v-3H0v-2h3v-3h2v3h3v2H5v3zM53 424v-3h-3v-2h3v-3h2v3h3v2h-3v3zM103 424v-3h-3v-2h3v-3h2v3h3v2h-3v3zM153 424v-3h-3v-2h3v-3h2v3h3v2h-3v3zM203 424v-3h-3v-2h3v-3h2v3h3v2h-3v3zM253 424v-3h-3v-2h3v-3h2v3h3v2h-3v3zM303 424v-3h-3v-2h3v-3h2v3h3v2h-3v3zM353 424v-3h-3v-2h3v-3h2v3h3v2h-3v3zM403 424v-3h-3v-2h3v-3h2v3h3v2h-3v3zM453 424v-3h-3v-2h3v-3h2v3h3v2h-3v3zM503 424v-3h-3v-2h3v-3h2v3h3v2h-3v3zM553 424v-3h-3v-2h3v-3h2v3h3v2h-3v3zM603 424v-3h-3v-2h3v-3h2v3h3v2h-3v3zM653 424v-3h-3v-2h3v-3h2v3h3v2h-3v3zM703 424v-3h-3v-2h3v-3h2v3h3v2h-3v3zM753 424v-3h-3v-2h3v-3h2v3h3v2h-3v3zM803 424v-3h-3v-2h3v-3h2v3h3v2h-3v3zM853 424v-3h-3v-2h3v-3h2v3h3v2h-3v3zM903 424v-3h-3v-2h3v-3h2v3h3v2h-3v3zM953 424v-3h-3v-2h3v-3h2v3h3v2h-3v3zM1003 424v-3h-3v-2h3v-3h2v3h3v2h-3v3zM1053 424v-3h-3v-2h3v-3h2v3h3v2h-3v3zM1103 424v-3h-3v-2h3v-3h2v3h3v2h-3v3zM1153 424v-3h-3v-2h3v-3h2v3h3v2h-3v3zM1203 424v-3h-3v-2h3v-3h2v3h3v2h-3v3zM1253 424v-3h-3v-2h3v-3h2v3h3v2h-3v3zM1303 424v-3h-3v-2h3v-3h2v3h3v2h-3v3zM1353 424v-3h-3v-2h3v-3h2v3h3v2h-3v3zM1403 424v-3h-3v-2h3v-3h2v3h3v2h-3v3zM1453 424v-3h-3v-2h3v-3h2v3h3v2h-3v3zM1503 424v-3h-3v-2h3v-3h2v3h3v2h-3v3zM1553 424v-3h-3v-2h3v-3h2v3h3v2h-3v3zM1603 424v-3h-3v-2h3v-3h2v3h3v2h-3v3zM1653 424v-3h-3v-2h3v-3h2v3h3v2h-3v3zM1703 424v-3h-3v-2h3v-3h2v3h3v2h-3v3zM1753 424v-3h-3v-2h3v-3h2v3h3v2h-3v3zM1803 424v-3h-3v-2h3v-3h2v3h3v2h-3v3zM1853 424v-3h-3v-2h3v-3h2v3h3v2h-3v3zM1903 424v-3h-3v-2h3v-3h2v3h3v2h-3v3zM3 476v-3H0v-2h3v-3h2v3h3v2H5v3zM53 476v-3h-3v-2h3v-3h2v3h3v2h-3v3zM103 476v-3h-3v-2h3v-3h2v3h3v2h-3v3zM153 476v-3h-3v-2h3v-3h2v3h3v2h-3v3zM203 476v-3h-3v-2h3v-3h2v3h3v2h-3v3zM253 476v-3h-3v-2h3v-3h2v3h3v2h-3v3zM303 476v-3h-3v-2h3v-3h2v3h3v2h-3v3zM353 476v-3h-3v-2h3v-3h2v3h3v2h-3v3zM403 476v-3h-3v-2h3v-3h2v3h3v2h-3v3zM453 476v-3h-3v-2h3v-3h2v3h3v2h-3v3zM503 476v-3h-3v-2h3v-3h2v3h3v2h-3v3zM553 476v-3h-3v-2h3v-3h2v3h3v2h-3v3zM603 476v-3h-3v-2h3v-3h2v3h3v2h-3v3zM653 476v-3h-3v-2h3v-3h2v3h3v2h-3v3zM703 476v-3h-3v-2h3v-3h2v3h3v2h-3v3zM753 476v-3h-3v-2h3v-3h2v3h3v2h-3v3zM803 476v-3h-3v-2h3v-3h2v3h3v2h-3v3zM853 476v-3h-3v-2h3v-3h2v3h3v2h-3v3zM903 476v-3h-3v-2h3v-3h2v3h3v2h-3v3zM953 476v-3h-3v-2h3v-3h2v3h3v2h-3v3zM1003 476v-3h-3v-2h3v-3h2v3h3v2h-3v3zM1053 476v-3h-3v-2h3v-3h2v3h3v2h-3v3zM1103 476v-3h-3v-2h3v-3h2v3h3v2h-3v3zM1153 476v-3h-3v-2h3v-3h2v3h3v2h-3v3zM1203 476v-3h-3v-2h3v-3h2v3h3v2h-3v3zM1253 476v-3h-3v-2h3v-3h2v3h3v2h-3v3zM1303 476v-3h-3v-2h3v-3h2v3h3v2h-3v3zM1353 476v-3h-3v-2h3v-3h2v3h3v2h-3v3zM1403 476v-3h-3v-2h3v-3h2v3h3v2h-3v3zM1453 476v-3h-3v-2h3v-3h2v3h3v2h-3v3zM1503 476v-3h-3v-2h3v-3h2v3h3v2h-3v3zM1553 476v-3h-3v-2h3v-3h2v3h3v2h-3v3zM1603 476v-3h-3v-2h3v-3h2v3h3v2h-3v3zM1653 476v-3h-3v-2h3v-3h2v3h3v2h-3v3zM1703 476v-3h-3v-2h3v-3h2v3h3v2h-3v3zM1753 476v-3h-3v-2h3v-3h2v3h3v2h-3v3zM1803 476v-3h-3v-2h3v-3h2v3h3v2h-3v3zM1853 476v-3h-3v-2h3v-3h2v3h3v2h-3v3zM1903 476v-3h-3v-2h3v-3h2v3h3v2h-3v3zM3 528v-3H0v-2h3v-3h2v3h3v2H5v3zM53 528v-3h-3v-2h3v-3h2v3h3v2h-3v3zM103 528v-3h-3v-2h3v-3h2v3h3v2h-3v3zM153 528v-3h-3v-2h3v-3h2v3h3v2h-3v3zM203 528v-3h-3v-2h3v-3h2v3h3v2h-3v3zM253 528v-3h-3v-2h3v-3h2v3h3v2h-3v3zM303 528v-3h-3v-2h3v-3h2v3h3v2h-3v3zM353 528v-3h-3v-2h3v-3h2v3h3v2h-3v3zM403 528v-3h-3v-2h3v-3h2v3h3v2h-3v3zM453 528v-3h-3v-2h3v-3h2v3h3v2h-3v3zM503 528v-3h-3v-2h3v-3h2v3h3v2h-3v3zM553 528v-3h-3v-2h3v-3h2v3h3v2h-3v3zM603 528v-3h-3v-2h3v-3h2v3h3v2h-3v3zM653 528v-3h-3v-2h3v-3h2v3h3v2h-3v3zM703 528v-3h-3v-2h3v-3h2v3h3v2h-3v3zM753 528v-3h-3v-2h3v-3h2v3h3v2h-3v3zM803 528v-3h-3v-2h3v-3h2v3h3v2h-3v3zM853 528v-3h-3v-2h3v-3h2v3h3v2h-3v3zM903 528v-3h-3v-2h3v-3h2v3h3v2h-3v3zM953 528v-3h-3v-2h3v-3h2v3h3v2h-3v3zM1003 528v-3h-3v-2h3v-3h2v3h3v2h-3v3zM1053 528v-3h-3v-2h3v-3h2v3h3v2h-3v3zM1103 528v-3h-3v-2h3v-3h2v3h3v2h-3v3zM1153 528v-3h-3v-2h3v-3h2v3h3v2h-3v3zM1203 528v-3h-3v-2h3v-3h2v3h3v2h-3v3zM1253 528v-3h-3v-2h3v-3h2v3h3v2h-3v3zM1303 528v-3h-3v-2h3v-3h2v3h3v2h-3v3zM1353 528v-3h-3v-2h3v-3h2v3h3v2h-3v3zM1403 528v-3h-3v-2h3v-3h2v3h3v2h-3v3zM1453 528v-3h-3v-2h3v-3h2v3h3v2h-3v3zM1503 528v-3h-3v-2h3v-3h2v3h3v2h-3v3zM1553 528v-3h-3v-2h3v-3h2v3h3v2h-3v3zM1603 528v-3h-3v-2h3v-3h2v3h3v2h-3v3zM1653 528v-3h-3v-2h3v-3h2v3h3v2h-3v3zM1703 528v-3h-3v-2h3v-3h2v3h3v2h-3v3zM1753 528v-3h-3v-2h3v-3h2v3h3v2h-3v3zM1803 528v-3h-3v-2h3v-3h2v3h3v2h-3v3zM1853 528v-3h-3v-2h3v-3h2v3h3v2h-3v3zM1903 528v-3h-3v-2h3v-3h2v3h3v2h-3v3zM3 580v-3H0v-2h3v-3h2v3h3v2H5v3zM53 580v-3h-3v-2h3v-3h2v3h3v2h-3v3zM103 580v-3h-3v-2h3v-3h2v3h3v2h-3v3zM153 580v-3h-3v-2h3v-3h2v3h3v2h-3v3zM203 580v-3h-3v-2h3v-3h2v3h3v2h-3v3zM253 580v-3h-3v-2h3v-3h2v3h3v2h-3v3zM303 580v-3h-3v-2h3v-3h2v3h3v2h-3v3zM353 580v-3h-3v-2h3v-3h2v3h3v2h-3v3zM403 580v-3h-3v-2h3v-3h2v3h3v2h-3v3zM453 580v-3h-3v-2h3v-3h2v3h3v2h-3v3zM503 580v-3h-3v-2h3v-3h2v3h3v2h-3v3zM553 580v-3h-3v-2h3v-3h2v3h3v2h-3v3zM603 580v-3h-3v-2h3v-3h2v3h3v2h-3v3zM653 580v-3h-3v-2h3v-3h2v3h3v2h-3v3zM703 580v-3h-3v-2h3v-3h2v3h3v2h-3v3zM753 580v-3h-3v-2h3v-3h2v3h3v2h-3v3zM803 580v-3h-3v-2h3v-3h2v3h3v2h-3v3zM853 580v-3h-3v-2h3v-3h2v3h3v2h-3v3zM903 580v-3h-3v-2h3v-3h2v3h3v2h-3v3zM953 580v-3h-3v-2h3v-3h2v3h3v2h-3v3zM1003 580v-3h-3v-2h3v-3h2v3h3v2h-3v3zM1053 580v-3h-3v-2h3v-3h2v3h3v2h-3v3zM1103 580v-3h-3v-2h3v-3h2v3h3v2h-3v3zM1153 580v-3h-3v-2h3v-3h2v3h3v2h-3v3zM1203 580v-3h-3v-2h3v-3h2v3h3v2h-3v3zM1253 580v-3h-3v-2h3v-3h2v3h3v2h-3v3zM1303 580v-3h-3v-2h3v-3h2v3h3v2h-3v3zM1353 580v-3h-3v-2h3v-3h2v3h3v2h-3v3zM1403 580v-3h-3v-2h3v-3h2v3h3v2h-3v3zM1453 580v-3h-3v-2h3v-3h2v3h3v2h-3v3zM1503 580v-3h-3v-2h3v-3h2v3h3v2h-3v3zM1553 580v-3h-3v-2h3v-3h2v3h3v2h-3v3zM1603 580v-3h-3v-2h3v-3h2v3h3v2h-3v3zM1653 580v-3h-3v-2h3v-3h2v3h3v2h-3v3zM1703 580v-3h-3v-2h3v-3h2v3h3v2h-3v3zM1753 580v-3h-3v-2h3v-3h2v3h3v2h-3v3zM1803 580v-3h-3v-2h3v-3h2v3h3v2h-3v3zM1853 580v-3h-3v-2h3v-3h2v3h3v2h-3v3zM1903 580v-3h-3v-2h3v-3h2v3h3v2h-3v3zM3 632v-3H0v-2h3v-3h2v3h3v2H5v3zM53 632v-3h-3v-2h3v-3h2v3h3v2h-3v3zM103 632v-3h-3v-2h3v-3h2v3h3v2h-3v3zM153 632v-3h-3v-2h3v-3h2v3h3v2h-3v3zM203 632v-3h-3v-2h3v-3h2v3h3v2h-3v3zM253 632v-3h-3v-2h3v-3h2v3h3v2h-3v3zM303 632v-3h-3v-2h3v-3h2v3h3v2h-3v3zM353 632v-3h-3v-2h3v-3h2v3h3v2h-3v3zM403 632v-3h-3v-2h3v-3h2v3h3v2h-3v3zM453 632v-3h-3v-2h3v-3h2v3h3v2h-3v3zM503 632v-3h-3v-2h3v-3h2v3h3v2h-3v3zM553 632v-3h-3v-2h3v-3h2v3h3v2h-3v3zM603 632v-3h-3v-2h3v-3h2v3h3v2h-3v3zM653 632v-3h-3v-2h3v-3h2v3h3v2h-3v3zM703 632v-3h-3v-2h3v-3h2v3h3v2h-3v3zM753 632v-3h-3v-2h3v-3h2v3h3v2h-3v3zM803 632v-3h-3v-2h3v-3h2v3h3v2h-3v3zM853 632v-3h-3v-2h3v-3h2v3h3v2h-3v3zM903 632v-3h-3v-2h3v-3h2v3h3v2h-3v3zM953 632v-3h-3v-2h3v-3h2v3h3v2h-3v3zM1003 632v-3h-3v-2h3v-3h2v3h3v2h-3v3zM1053 632v-3h-3v-2h3v-3h2v3h3v2h-3v3zM1103 632v-3h-3v-2h3v-3h2v3h3v2h-3v3zM1153 632v-3h-3v-2h3v-3h2v3h3v2h-3v3zM1203 632v-3h-3v-2h3v-3h2v3h3v2h-3v3zM1253 632v-3h-3v-2h3v-3h2v3h3v2h-3v3zM1303 632v-3h-3v-2h3v-3h2v3h3v2h-3v3zM1353 632v-3h-3v-2h3v-3h2v3h3v2h-3v3zM1403 632v-3h-3v-2h3v-3h2v3h3v2h-3v3zM1453 632v-3h-3v-2h3v-3h2v3h3v2h-3v3zM1503 632v-3h-3v-2h3v-3h2v3h3v2h-3v3zM1553 632v-3h-3v-2h3v-3h2v3h3v2h-3v3zM1603 632v-3h-3v-2h3v-3h2v3h3v2h-3v3zM1653 632v-3h-3v-2h3v-3h2v3h3v2h-3v3zM1703 632v-3h-3v-2h3v-3h2v3h3v2h-3v3zM1753 632v-3h-3v-2h3v-3h2v3h3v2h-3v3zM1803 632v-3h-3v-2h3v-3h2v3h3v2h-3v3zM1853 632v-3h-3v-2h3v-3h2v3h3v2h-3v3zM1903 632v-3h-3v-2h3v-3h2v3h3v2h-3v3zM3 684v-3H0v-2h3v-3h2v3h3v2H5v3zM53 684v-3h-3v-2h3v-3h2v3h3v2h-3v3zM103 684v-3h-3v-2h3v-3h2v3h3v2h-3v3zM153 684v-3h-3v-2h3v-3h2v3h3v2h-3v3zM203 684v-3h-3v-2h3v-3h2v3h3v2h-3v3zM253 684v-3h-3v-2h3v-3h2v3h3v2h-3v3zM303 684v-3h-3v-2h3v-3h2v3h3v2h-3v3zM353 684v-3h-3v-2h3v-3h2v3h3v2h-3v3zM403 684v-3h-3v-2h3v-3h2v3h3v2h-3v3zM453 684v-3h-3v-2h3v-3h2v3h3v2h-3v3zM503 684v-3h-3v-2h3v-3h2v3h3v2h-3v3zM553 684v-3h-3v-2h3v-3h2v3h3v2h-3v3zM603 684v-3h-3v-2h3v-3h2v3h3v2h-3v3zM653 684v-3h-3v-2h3v-3h2v3h3v2h-3v3zM703 684v-3h-3v-2h3v-3h2v3h3v2h-3v3zM753 684v-3h-3v-2h3v-3h2v3h3v2h-3v3zM803 684v-3h-3v-2h3v-3h2v3h3v2h-3v3zM853 684v-3h-3v-2h3v-3h2v3h3v2h-3v3zM903 684v-3h-3v-2h3v-3h2v3h3v2h-3v3zM953 684v-3h-3v-2h3v-3h2v3h3v2h-3v3zM1003 684v-3h-3v-2h3v-3h2v3h3v2h-3v3zM1053 684v-3h-3v-2h3v-3h2v3h3v2h-3v3zM1103 684v-3h-3v-2h3v-3h2v3h3v2h-3v3zM1153 684v-3h-3v-2h3v-3h2v3h3v2h-3v3zM1203 684v-3h-3v-2h3v-3h2v3h3v2h-3v3zM1253 684v-3h-3v-2h3v-3h2v3h3v2h-3v3zM1303 684v-3h-3v-2h3v-3h2v3h3v2h-3v3zM1353 684v-3h-3v-2h3v-3h2v3h3v2h-3v3zM1403 684v-3h-3v-2h3v-3h2v3h3v2h-3v3zM1453 684v-3h-3v-2h3v-3h2v3h3v2h-3v3zM1503 684v-3h-3v-2h3v-3h2v3h3v2h-3v3zM1553 684v-3h-3v-2h3v-3h2v3h3v2h-3v3zM1603 684v-3h-3v-2h3v-3h2v3h3v2h-3v3zM1653 684v-3h-3v-2h3v-3h2v3h3v2h-3v3zM1703 684v-3h-3v-2h3v-3h2v3h3v2h-3v3zM1753 684v-3h-3v-2h3v-3h2v3h3v2h-3v3zM1803 684v-3h-3v-2h3v-3h2v3h3v2h-3v3zM1853 684v-3h-3v-2h3v-3h2v3h3v2h-3v3zM1903 684v-3h-3v-2h3v-3h2v3h3v2h-3v3zM3 736v-3H0v-2h3v-3h2v3h3v2H5v3zM53 736v-3h-3v-2h3v-3h2v3h3v2h-3v3zM103 736v-3h-3v-2h3v-3h2v3h3v2h-3v3zM153 736v-3h-3v-2h3v-3h2v3h3v2h-3v3zM203 736v-3h-3v-2h3v-3h2v3h3v2h-3v3zM253 736v-3h-3v-2h3v-3h2v3h3v2h-3v3zM303 736v-3h-3v-2h3v-3h2v3h3v2h-3v3zM353 736v-3h-3v-2h3v-3h2v3h3v2h-3v3zM403 736v-3h-3v-2h3v-3h2v3h3v2h-3v3zM453 736v-3h-3v-2h3v-3h2v3h3v2h-3v3zM503 736v-3h-3v-2h3v-3h2v3h3v2h-3v3zM553 736v-3h-3v-2h3v-3h2v3h3v2h-3v3zM603 736v-3h-3v-2h3v-3h2v3h3v2h-3v3zM653 736v-3h-3v-2h3v-3h2v3h3v2h-3v3zM703 736v-3h-3v-2h3v-3h2v3h3v2h-3v3zM753 736v-3h-3v-2h3v-3h2v3h3v2h-3v3zM803 736v-3h-3v-2h3v-3h2v3h3v2h-3v3zM853 736v-3h-3v-2h3v-3h2v3h3v2h-3v3zM903 736v-3h-3v-2h3v-3h2v3h3v2h-3v3zM953 736v-3h-3v-2h3v-3h2v3h3v2h-3v3zM1003 736v-3h-3v-2h3v-3h2v3h3v2h-3v3zM1053 736v-3h-3v-2h3v-3h2v3h3v2h-3v3zM1103 736v-3h-3v-2h3v-3h2v3h3v2h-3v3zM1153 736v-3h-3v-2h3v-3h2v3h3v2h-3v3zM1203 736v-3h-3v-2h3v-3h2v3h3v2h-3v3zM1253 736v-3h-3v-2h3v-3h2v3h3v2h-3v3zM1303 736v-3h-3v-2h3v-3h2v3h3v2h-3v3zM1353 736v-3h-3v-2h3v-3h2v3h3v2h-3v3zM1403 736v-3h-3v-2h3v-3h2v3h3v2h-3v3zM1453 736v-3h-3v-2h3v-3h2v3h3v2h-3v3zM1503 736v-3h-3v-2h3v-3h2v3h3v2h-3v3zM1553 736v-3h-3v-2h3v-3h2v3h3v2h-3v3zM1603 736v-3h-3v-2h3v-3h2v3h3v2h-3v3zM1653 736v-3h-3v-2h3v-3h2v3h3v2h-3v3zM1703 736v-3h-3v-2h3v-3h2v3h3v2h-3v3zM1753 736v-3h-3v-2h3v-3h2v3h3v2h-3v3zM1803 736v-3h-3v-2h3v-3h2v3h3v2h-3v3zM1853 736v-3h-3v-2h3v-3h2v3h3v2h-3v3zM1903 736v-3h-3v-2h3v-3h2v3h3v2h-3v3z" />
    </g>
  </g>
</svg>